<?xml version="1.0" encoding="utf-8"?>
<svg viewBox="141.784 89.452 200.569 60.248" xmlns="http://www.w3.org/2000/svg">
  <defs>
    <style type="text/css">
	.st0{fill:#323232;}
	.st1{fill:none;stroke:#323232;stroke-miterlimit:10;}
	.st2{fill:#E11D48;}
</style>
  </defs>
  <rect x="157" y="96.5" class="st0" width="14.2" height="53.2"/>
  <rect x="157" y="74.2" transform="matrix(0, -1, 1, 0, 67.5839, 260.652191)" class="st0" width="14.2" height="44.6"/>
  <rect x="178.9" y="111.1" transform="matrix(-1, 0, 0, -1, 371.887604, 260.660889)" class="st0" width="14.2" height="38.4"/>
  <rect x="239.7" y="111.1" class="st0" width="14.2" height="38.4"/>
  <rect x="261.7" y="111.1" transform="matrix(-1, 0, 0, -1, 537.670227, 260.665985)" class="st0" width="14.2" height="38.4"/>
  <rect x="328.1" y="111.1" transform="matrix(-1, 0, 0, -1, 670.452881, 260.665985)" class="st0" width="14.2" height="38.4"/>
  <g id="XMLID_1_">
    <g>
      <path class="st0" d="M229.2,111.2c9.7,0,17.6,8.6,17.6,19.2c0,10.6-7.9,19.2-17.6,19.2c-9.7,0-17.6-8.6-17.6-19.2 C211.6,119.7,219.5,111.2,229.2,111.2z M239.7,130.5c0-5.1-3.8-9.1-8.4-9.1c-4.6,0-8.4,4.1-8.4,9.1c0,5.1,3.8,9.1,8.4,9.1 C235.9,139.6,239.7,135.5,239.7,130.5z"/>
    </g>
    <g>
      <ellipse class="st1" cx="229.2" cy="130.3" rx="17.6" ry="19.2"/>
      <path class="st1" d="M222.9,130.5c0,5.1,3.8,9.1,8.4,9.1c4.6,0,8.4-4.1,8.4-9.1c0-5.1-3.8-9.1-8.4-9.1 C226.7,121.3,222.9,125.4,222.9,130.5z"/>
    </g>
  </g>
  <g>
    <rect x="282.6" y="111.3" class="st0" width="14.2" height="38.4"/>
    <polygon class="st0" points="321.5,130.8 321.5,149.6 307.5,149.6 307.3,131.9 &#9;"/>
  </g>
  <g id="XMLID_3_">
    <g>
      <path class="st0" d="M289.8,131.3l6.5-0.1c0-5.1,4-10.6,8-9.5c4.5,1.2,3.5,4.7,3.5,9.7l13.2-0.6c0.1-12.3-4.8-19.3-14.6-19.3 C296.7,111.6,289.8,120.7,289.8,131.3z"/>
    </g>
    <g>
      <path class="st1" d="M307.8,131.5c0-5.1,1-8.5-3.5-9.7c-4-1.1-8,4.4-8,9.5l-6.5,0.1c0-10.6,6.9-19.7,16.6-19.7 c9.7,0,14.6,7.1,14.6,19.3L307.8,131.5z"/>
    </g>
  </g>
  <circle class="st2" cx="202.6" cy="118.2" r="7.1"/>
  <circle class="st2" cx="268.8" cy="100.9" r="7.1"/>
  <circle class="st2" cx="335.2" cy="100.9" r="7.1"/>
</svg>