<?xml version="1.0" ?><svg data-name="Design Convert" id="Design_Convert" viewBox="0 0 64 64" xmlns="http://www.w3.org/2000/svg"><defs><style>.cls-1{fill:#010101;}</style></defs><title/><path class="cls-1" d="M52,57H12a5,5,0,0,1-5-5V24a1,1,0,0,1,1-1H56a1,1,0,0,1,1,1V52A5,5,0,0,1,52,57ZM9,25V52a3,3,0,0,0,3,3H52a3,3,0,0,0,3-3V25Z"/><path class="cls-1" d="M56,25H8a1,1,0,0,1-1-1V20a5,5,0,0,1,5-5H52a5,5,0,0,1,5,5v4A1,1,0,0,1,56,25ZM9,23H55V20a3,3,0,0,0-3-3H12a3,3,0,0,0-3,3Z"/><path class="cls-1" d="M26,17H18a1,1,0,0,1-1-1V12a5,5,0,0,1,10,0v4A1,1,0,0,1,26,17Zm-7-2h6V12a3,3,0,0,0-6,0Z"/><path class="cls-1" d="M46,17H38a1,1,0,0,1-1-1V12a5,5,0,0,1,10,0v4A1,1,0,0,1,46,17Zm-7-2h6V12a3,3,0,0,0-6,0Z"/><path class="cls-1" d="M21,37H15a1,1,0,0,1,0-2h5V30a1,1,0,0,1,2,0v6A1,1,0,0,1,21,37Z"/><path class="cls-1" d="M35,37H29a1,1,0,0,1,0-2h5V30a1,1,0,0,1,2,0v6A1,1,0,0,1,35,37Z"/><path class="cls-1" d="M49,37H43a1,1,0,0,1,0-2h5V30a1,1,0,0,1,2,0v6A1,1,0,0,1,49,37Z"/><path class="cls-1" d="M21,50H15a1,1,0,0,1,0-2h5V43a1,1,0,0,1,2,0v6A1,1,0,0,1,21,50Z"/><path class="cls-1" d="M35,50H29a1,1,0,0,1,0-2h5V43a1,1,0,0,1,2,0v6A1,1,0,0,1,35,50Z"/><path class="cls-1" d="M49,50H43a1,1,0,0,1,0-2h5V43a1,1,0,0,1,2,0v6A1,1,0,0,1,49,50Z"/></svg>